<svg width="216" height="216" viewBox="0 0 216 216" fill="none" xmlns="http://www.w3.org/2000/svg">
<path d="M190.31 53.7601C185.08 51.0901 178.83 51.3701 173.86 54.5101C157.66 64.7201 117.12 91.3801 64.7202 128.47L73.1602 141.57L75.4502 140.11C79.1002 137.8 83.2802 138.57 86.4402 141.51L90.1002 144.91L93.6702 141.76C93.6702 141.76 86.9502 134.15 85.0102 125.63C85.0102 125.63 88.7102 135.33 95.4902 140.13L95.8602 137.22L98.7702 137.59L99.1402 134.68L102.05 135.05L102.42 132.14L105.33 132.51L105.7 129.6L108.61 129.97L108.98 127.06L111.89 127.43L112.26 124.52L115.17 124.89L115.54 121.98L118.45 122.35L118.82 119.44L121.73 119.81L122.1 116.9L125.01 117.27L125.38 114.36L128.29 114.73L128.66 111.82L131.57 112.19L131.94 109.28L134.85 109.65L135.22 106.74L138.13 107.11L138.5 104.2L141.41 104.57L141.78 101.66L144.69 102.03L145.06 99.1201L147.97 99.4901L148.34 96.5801L151.25 96.9501L151.62 94.0401L154.53 94.4101L154.9 91.5001L157.81 91.8701L158.18 88.9601L161.09 89.3301L161.46 86.4201L164.37 86.7901L164.74 83.8801L167.65 84.2501L168.02 81.3401L170.93 81.7101L171.3 78.8001L174.21 79.1701L174.58 76.2601L177.49 76.6301L177.86 73.7201L180.77 74.0901L181.14 71.1801L184.05 71.5501L184.42 68.6401L187.33 69.0101L187.7 66.1001L190.61 66.4701L190.98 63.5601L193.89 63.9301L194.05 62.6401L198.03 58.9301L190.31 53.7601Z" fill="#232525"/>
<path d="M163.82 95.21C163.13 95.93 162.44 96.65 161.72 97.37C161.6 97.49 161.57 97.68 161.66 97.82L168.17 107.96L138.1 160.04H77.9802L47.9102 107.96L77.9802 55.88H138.11L144.31 65.57C144.42 65.76 144.66 65.82 144.84 65.7C145.62 65.19 146.43 64.65 147.26 64.09C147.42 63.98 147.48 63.76 147.38 63.58L140.75 53.13C140.42 52.56 139.82 52.22 139.17 52.22H76.9202C76.2702 52.22 75.6602 52.57 75.3402 53.13L44.2202 107.03C43.8902 107.6 43.8902 108.29 44.2202 108.86L75.3402 162.76C75.6702 163.33 76.2702 163.67 76.9202 163.67H139.16C139.81 163.67 140.42 163.32 140.74 162.76L171.86 108.86C172.19 108.29 172.19 107.6 171.86 107.03L164.41 95.27C164.3 95.06 164 95.03 163.82 95.21Z" fill="#242526"/>
</svg>
