<svg width="216" height="216" viewBox="0 0 216 216" fill="none" xmlns="http://www.w3.org/2000/svg">
<path d="M165.33 97.6499C164.64 98.3699 163.95 99.0899 163.23 99.8099C163.11 99.9299 163.08 100.12 163.17 100.26L168.2 107.87L138.13 159.95H78.0002L47.9402 107.87L78.0102 55.7899H138.14L142.86 62.6099C142.97 62.7999 143.21 62.8599 143.39 62.7399C144.17 62.2299 144.98 61.6899 145.81 61.1299C145.97 61.0199 146.03 60.7999 145.93 60.6199L140.78 53.0399C140.45 52.4699 139.85 52.1299 139.2 52.1299H76.9502C76.3002 52.1299 75.6902 52.4799 75.3702 53.0399L44.2402 106.96C43.9102 107.53 43.9102 108.22 44.2402 108.79L75.3602 162.69C75.6902 163.26 76.2902 163.6 76.9402 163.6H139.18C139.83 163.6 140.44 163.25 140.76 162.69L171.88 108.79C172.21 108.22 172.21 107.53 171.88 106.96L165.91 97.7199C165.78 97.4999 165.49 97.4699 165.31 97.6499H165.33Z" fill="#242526"/>
<path d="M119.16 89.9299C98.9001 107.77 87.9001 117.44 82.3301 122.35L82.4601 122.56C82.5401 122.69 95.9901 140.28 108.29 150.61L108.45 150.74C185.67 81.4799 188.36 39.4399 188.36 39.4399C188.36 39.4399 172.72 42.7899 119.16 89.9299Z" fill="#232525"/>
<path d="M78.0602 147.84L80.7203 145.56C80.7203 145.56 79.4903 140.09 72.8203 135.17C78.4503 136.67 82.3503 143.6 82.3503 143.6C83.8603 142.99 85.6803 142.35 87.6702 142.59C91.8802 143.1 103.41 155.2 103.41 155.2L107.27 151.8C94.6202 141.18 81.1203 123.39 81.1203 123.39L67.7603 134.42L75.5003 148.07L78.0703 147.85L78.0602 147.84Z" fill="#232525"/>
</svg>
