<svg width="216" height="216" viewBox="0 0 216 216" fill="none" xmlns="http://www.w3.org/2000/svg">
<path d="M169.76 104.43C169.07 105.15 168.38 105.87 167.66 106.59C167.54 106.71 167.51 106.9 167.6 107.04L168.2 107.87L138.13 159.95H78.0002L47.9402 107.87L78.0102 55.7899H138.14L138.77 56.4399C138.88 56.6299 139.12 56.6899 139.3 56.5699C140.08 56.0599 140.89 55.5199 141.72 54.9599C141.88 54.8499 141.94 54.6299 141.84 54.4499L140.78 53.0399C140.45 52.4699 139.85 52.1299 139.2 52.1299H76.9502C76.3002 52.1299 75.6902 52.4799 75.3702 53.0399L44.2402 106.96C43.9102 107.53 43.9102 108.22 44.2402 108.79L75.3602 162.69C75.6902 163.26 76.2902 163.6 76.9402 163.6H139.18C139.83 163.6 140.44 163.25 140.76 162.69L171.88 108.79C172.21 108.22 172.21 107.53 171.88 106.96L170.34 104.5C170.21 104.28 169.92 104.25 169.74 104.43H169.76Z" fill="#242526"/>
<path d="M157.64 54.4899C154.42 52.0599 149.9 52.3899 147.07 55.2699C137.48 65.0299 114.65 87.4999 86.27 110.38L63.96 127.48L72.27 142.23L74.28 143.41C83.78 135.27 90.5 127.6 90.5 127.6L88.33 118.7L111.01 144.97C111.01 144.97 153.45 117.27 192.03 80.4099L157.64 54.4899ZM77.5 130.68C75.59 130.44 74.24 128.7 74.48 126.79C74.72 124.88 76.46 123.53 78.37 123.77C80.28 124.01 81.63 125.75 81.39 127.66C81.15 129.57 79.4 130.91 77.5 130.68ZM151.79 64.8499C149.88 64.6099 148.53 62.8699 148.77 60.9599C149.01 59.0499 150.75 57.6999 152.66 57.9399C154.57 58.1799 155.92 59.9199 155.68 61.8299C155.44 63.7299 153.7 65.0799 151.79 64.8499Z" fill="#232525"/>
</svg>
