<svg width="216" height="216" viewBox="0 0 216 216" fill="none" xmlns="http://www.w3.org/2000/svg">
<path d="M163.71 95.19C163.02 95.91 162.33 96.6299 161.61 97.3499C161.49 97.4699 161.46 97.66 161.55 97.8L168.06 107.94L137.99 160.02H77.8598L47.7898 107.94L77.8598 55.86H137.99L144.19 65.55C144.3 65.74 144.54 65.8 144.72 65.68C145.5 65.17 146.31 64.63 147.14 64.07C147.3 63.96 147.36 63.74 147.26 63.56L140.63 53.11C140.3 52.54 139.7 52.2 139.05 52.2H76.8098C76.1598 52.2 75.5498 52.55 75.2298 53.11L44.1098 107.01C43.7798 107.58 43.7798 108.27 44.1098 108.84L75.2298 162.74C75.5598 163.31 76.1598 163.65 76.8098 163.65H139.05C139.7 163.65 140.31 163.3 140.63 162.74L171.75 108.84C172.08 108.27 172.08 107.58 171.75 107.01L164.3 95.25C164.17 95.0299 163.88 95 163.7 95.18L163.71 95.19Z" fill="#242526"/>
<path d="M72.6801 129.59C66.6201 134.84 68.5501 133.31 67.3501 134.39L76.7901 151.3L80.2901 151.92L86.1201 146.93L72.6801 129.6V129.59Z" fill="#232525"/>
<path d="M73.98 128.44L87.6 145.65L101.4 133.83L98.02 122.46L110.5 136.35C110.5 136.35 178.41 82.4899 187.63 46.9099C187.63 46.9099 145.36 66.7399 73.98 128.43V128.44Z" fill="#232525"/>
</svg>
