<svg width="216" height="216" viewBox="0 0 216 216" fill="none" xmlns="http://www.w3.org/2000/svg">
<path d="M159.33 86.64C158.64 87.36 157.95 88.08 157.23 88.8C157.11 88.92 157.08 89.11 157.17 89.25L167.87 107.77L137.8 159.85H77.6799L47.6099 107.77L77.6799 55.7H137.81L142.96 64.9C143.07 65.09 143.31 65.15 143.49 65.03C144.27 64.52 145.1 63.23 145.59 62.64C145.72 62.49 145.81 62.31 145.71 62.13L140.45 52.95C140.12 52.38 139.52 52.04 138.87 52.04H76.6199C75.9699 52.04 75.3599 52.39 75.0399 52.95L43.9199 106.85C43.5899 107.42 43.5899 108.11 43.9199 108.68L75.0399 162.58C75.3699 163.15 75.9699 163.49 76.6199 163.49H138.86C139.51 163.49 140.12 163.14 140.44 162.58L171.56 108.68C171.89 108.11 171.89 107.42 171.56 106.85L159.92 86.7C159.8 86.5 159.5 86.46 159.33 86.64Z" fill="#242526"/>
<path d="M185.06 20.6799L185.05 20.6699L142.49 75.6499L158.81 66.0199L185.06 20.6799Z" fill="#242526"/>
<path d="M132.05 102.61C132.23 102.95 132.24 103.36 132.09 103.72L131.49 105.12L135.26 106.67L140.13 98.26L133.6 103.56L132.05 102.61Z" fill="#242526"/>
<path d="M137.13 85.97C136.22 86.81 136.17 88.23 137.01 89.14C137.85 90.05 139.27 90.1 140.18 89.26C141.09 88.42 141.14 87 140.3 86.09C139.46 85.19 138.04 85.13 137.13 85.97Z" fill="#242526"/>
<path d="M121.76 90.9199L122.08 96.68L124.66 94.9599L125.37 95.4L126.82 96.3L133.39 100.37L133.84 100.01L143.99 91.7699L206.1 41.32L206 41.2L121.76 90.9199ZM141.07 90.22C139.63 91.55 137.38 91.4599 136.05 90.0299C134.72 88.59 134.8 86.34 136.24 85.01C137.68 83.68 139.93 83.7699 141.26 85.1999C142.59 86.6399 142.51 88.8899 141.07 90.22Z" fill="#242526"/>
<path d="M55.44 115.13C57.91 111.69 61.56 108.28 66.6 104.88C70.95 101.94 82.45 98.36 87.7 104.69C92.95 111.02 86.05 118.34 79.7 123.3C74.48 127.38 71.53 130.35 66.45 132.67L68.31 136.55C71.66 134.57 70.44 134.78 70.44 134.78L71.89 136.34L77.88 131.71L77.68 129.79C77.68 129.79 80.48 127.87 84.57 125.06C94.09 117.96 111.84 104.76 115.33 102.45C118.49 100.36 119.38 99.17 119.59 98.82L119.23 92.25L119.14 90.64C119 90.46 118.83 90.29 118.71 90.23C117.6 90.86 110.81 93.48 103.13 95.25C98.19 96.72 92.86 97.69 88.51 96.98C77.5 95.19 67.4 98.36 58.95 106.45C57.25 108.08 55.15 110.27 53.71 112.02L55.44 115.13Z" fill="#242526"/>
<path d="M122.71 156.64C125.9 153.97 126.41 147.62 126.72 138.48C126.84 134.85 127.15 131.84 127.68 129.22C128.34 123.67 129.74 119.3 133.14 115.26C135.47 112.49 135.63 110.91 135.52 110.22C135.45 109.79 135.25 109.55 135.17 109.46L129.01 106.93C128.78 107.03 128.15 107.41 127.17 108.88C125.52 111.34 118.79 118.26 112.32 124.81C111 126.27 109.73 127.63 108.58 128.81C102.66 134.89 93.9099 144.96 93.9099 144.96L91.4599 144.66L86.4699 150.27L87.3199 152.15C87.3199 152.15 85.2499 154.35 83.6699 156.15L89.0399 156.22C90.3899 154.34 91.8599 152.64 93.0999 151.46C96.7199 148.01 99.7099 144.84 99.7099 144.84C104.08 140.5 111.33 134.67 116.77 137.14C122.21 139.61 123.7 146.33 120.3 153.43C119.05 156.05 118.57 156.47 118.43 156.66H122.71V156.64Z" fill="#242526"/>
</svg>
